<svg width="76" height="46" viewBox="0 0 76 46" fill="none" xmlns="http://www.w3.org/2000/svg">
<g id="Vector">
<path d="M0 2.42105C0 1.08394 1.0802 0 2.4127 0H73.5873C74.9198 0 76 1.08394 76 2.42105V26.0263C76 27.3634 74.9198 28.4474 73.5873 28.4474H2.4127C1.0802 28.4474 0 27.3634 0 26.0263V2.42105Z" fill="#49BFBF"/>
<path d="M6.64698 6.94116C9.36851 6.94116 11.9935 8.39379 14.522 11.2991C15.2941 12.8292 15.6801 14.3108 15.6801 15.7441C15.6801 19.1142 13.9719 21.5934 10.5556 23.1816C9.45537 23.6658 8.26832 23.9079 6.99441 23.9079H6.2706C5.55644 23.8885 5.19937 23.5883 5.19937 23.0073H5.11251C5.11251 22.4843 5.44064 22.2132 6.09689 22.1938H6.76279V22.0195H6.8207C5.624 16.9256 5.02565 13.1391 5.02565 10.6599H4.93879L4.21498 11.1247C3.71314 11.1247 3.41397 10.7858 3.31746 10.1079C3.31746 9.04263 3.91581 8.11295 5.11251 7.31884C5.59505 7.06705 6.10654 6.94116 6.64698 6.94116ZM6.99441 8.65526H6.76279V10.0498C6.76279 13.2262 7.36114 17.2161 8.55784 22.0195H8.6447C12.2155 21.0511 14.0009 18.9593 14.0009 15.7441C14.0009 12.2965 12.0032 9.99168 8.00775 8.82958C7.77613 8.71337 7.43835 8.65526 6.99441 8.65526Z" fill="white"/>
<path d="M21.7678 7.37695H21.8836C24.2191 7.80305 25.3869 8.9361 25.3869 10.7761V11.2991C25.3869 13.3327 24.0937 15.3567 21.5072 17.3711V17.4873C25.6957 21.2447 28.5909 23.1235 30.193 23.1235C30.4825 23.3365 30.6272 23.598 30.6272 23.9079C30.6272 24.3534 30.2991 24.6342 29.6429 24.7504C28.0408 24.7504 25.0491 22.8136 20.6676 18.9399L19.4227 18.2717H19.3358C19.8763 20.4409 20.1465 22.1163 20.1465 23.2978C20.1465 23.8014 19.8377 24.1597 19.22 24.3727C18.3321 24.3727 17.7724 22.1938 17.5408 17.8359C16.9231 15.8216 16.6143 14.214 16.6143 13.0132V12.7517C16.6143 10.9892 17.0003 10.1079 17.7724 10.1079L18.3225 10.3984H18.4962C19.4227 8.3841 20.5132 7.37695 21.7678 7.37695ZM19.4227 15.134L19.3358 16.2089C21.1309 16.2089 22.5785 14.7176 23.6787 11.7348V10.6599C23.6787 9.80768 23.0996 9.29442 21.9415 9.12011H21.7678C20.5518 9.12011 19.7701 11.1247 19.4227 15.134Z" fill="white"/>
<path d="M40.5443 7.14453C40.8918 7.14453 41.133 7.44474 41.2682 8.04516C41.2682 8.39379 40.6602 8.878 39.4442 9.49779C37.9386 10.8148 36.8191 13.0809 36.0857 16.2961V16.8191C37.7649 15.9862 38.9713 15.4826 39.7047 15.3083C39.9363 15.3083 40.2162 15.5117 40.5443 15.9184V16.4704C40.5443 16.6835 39.6951 17.1096 37.9965 17.7487C36.7226 18.446 36.0857 18.8431 36.0857 18.9399V19.2014C36.0857 20.286 36.7805 21.2254 38.1702 22.0195L39.1546 22.1938C39.7916 22.1938 40.7374 21.7967 41.992 21.0026H42.3394C42.7447 21.1963 42.9474 21.4772 42.9474 21.8452V22.0195C41.7507 23.2784 40.4285 23.9079 38.9809 23.9079C36.9156 23.9079 35.4101 22.5134 34.4643 19.7243L32.6403 20.102C31.7525 19.9664 31.3085 19.6759 31.3085 19.2304C31.3085 18.7849 31.5691 18.4654 32.0902 18.2717L32.7562 18.3879C33.7598 18.0974 34.2617 17.8843 34.2617 17.7487C34.2617 14.4561 35.5066 11.4056 37.9965 8.59716C39.2511 7.62874 40.1004 7.14453 40.5443 7.14453Z" fill="white"/>
<path d="M50.3212 6.65063L51.045 6.41821C51.7013 6.41821 52.0294 7.28979 52.0294 9.03295L52.9269 15.7441L53.0427 15.8603L56.3722 14.6401C56.8162 14.6401 57.0575 14.9791 57.0961 15.6569C57.0961 16.1605 55.8704 16.7706 53.4191 17.4873L53.3033 17.5454V17.6616C53.3033 18.0683 53.9403 20.1892 55.2142 24.0241V24.0822C55.2142 24.4502 54.915 24.7601 54.3166 25.0119C53.7569 25.0119 53.3902 24.3437 53.2164 23.0073C52.7725 22.0388 52.2321 20.4409 51.5951 18.2136H51.4793C48.9508 18.7365 47.6865 19.182 47.6865 19.55C46.2968 22.5715 45.2449 24.0822 44.5307 24.0822C44.1254 24.0822 43.8841 23.8207 43.8069 23.2978C43.8069 22.8329 44.3184 21.9226 45.3414 20.5668L45.8046 19.55H45.0808L44.5307 19.6662C43.8166 19.4919 43.4595 19.1239 43.4595 18.5622C43.749 17.8843 44.1736 17.5454 44.7334 17.5454L45.4572 17.8359C46.5381 17.8359 47.0785 17.4388 47.0785 16.6447C48.0629 14.3205 49.1438 10.9892 50.3212 6.65063ZM50.5818 11.9382L48.8736 17.1096C50.4563 16.7997 51.2477 16.4995 51.2477 16.2089C50.9582 13.3618 50.7362 11.9382 50.5818 11.9382Z" fill="white"/>
<path d="M66.2936 2.69947H66.3805C66.863 2.95126 67.1043 3.2321 67.1043 3.542L66.3805 9.062C66.3805 11.0763 66.9789 15.2502 68.1755 21.5837L69.6232 25.2153C69.6232 25.4671 69.4205 25.7479 69.0152 26.0578H68.4651C68.079 25.9416 67.5 24.7504 66.7279 22.4843C66.2261 20.6637 65.7242 17.8553 65.2224 14.0591H65.0487C63.9292 17.3904 63.1378 19.1142 62.6746 19.2304L62.2114 19.3466C61.806 19.3466 61.3042 18.5525 60.7058 16.9643H60.5032C60.2715 21.7483 59.818 24.1403 59.1424 24.1403H59.0555C58.4379 24.1403 58.1001 23.6561 58.0422 22.6877C58.5248 20.8283 58.766 18.8915 58.766 16.8772L57.9843 9.17821V8.62621C57.9843 7.89021 58.2449 7.52221 58.766 7.52221C59.5188 7.52221 60.1847 9.00389 60.7637 11.9673C61.613 14.6595 62.1342 16.1121 62.3272 16.3252C62.7711 15.6279 63.215 14.3883 63.659 12.6064C64.0064 11.6961 64.3442 10.2725 64.6723 8.33568L64.5565 8.24853L64.6723 7.78368V7.60937C64.846 4.3361 65.3865 2.69947 66.2936 2.69947Z" fill="white"/>
<path d="M26.0383 32.1709L21.1164 46H19.3792L14.4573 32.1709H16.2717L19.3792 41.0417C19.5208 41.4161 19.643 41.7777 19.746 42.1263C19.8489 42.4749 19.939 42.8107 20.0162 43.1335C20.1063 43.4434 20.1835 43.7533 20.2478 44.0632C20.3122 43.7533 20.3829 43.4369 20.4601 43.1141C20.5502 42.7913 20.6467 42.4556 20.7497 42.1069C20.8655 41.7583 20.9877 41.3903 21.1164 41.0029L24.2046 32.1709H26.0383Z" fill="white"/>
<path d="M31.7826 46H26.8028V44.9928L28.4242 44.6248V33.5655L26.8028 33.1781V32.1709H31.7826V33.1781L30.1613 33.5655V44.6248L31.7826 44.9928V46Z" fill="white"/>
<path d="M42.145 46H34.4437V32.1709H42.145V33.7011H36.1808V38.0202H41.7976V39.5309H36.1808V44.4699H42.145V46Z" fill="white"/>
<path d="M60.9962 32.1709L57.3289 46H55.5724L52.8895 36.9356C52.8123 36.6644 52.7351 36.3868 52.6579 36.1027C52.5807 35.8187 52.5099 35.5475 52.4456 35.2893C52.3812 35.031 52.3233 34.8115 52.2719 34.6307C52.2333 34.4371 52.2075 34.295 52.1947 34.2046C52.1818 34.295 52.1561 34.4371 52.1175 34.6307C52.0917 34.8115 52.0467 35.031 51.9823 35.2893C51.918 35.5475 51.8472 35.8251 51.77 36.1221C51.7057 36.4062 51.6285 36.6967 51.5384 36.9937L48.9327 46H47.1762L43.5282 32.1709H45.3426L47.4851 40.6156C47.5623 40.9126 47.633 41.2095 47.6974 41.5065C47.7617 41.7906 47.8196 42.0747 47.8711 42.3587C47.9354 42.6299 47.9869 42.8946 48.0255 43.1528C48.0641 43.4111 48.1027 43.6629 48.1413 43.9082C48.1799 43.65 48.2185 43.3853 48.2571 43.1141C48.3086 42.8429 48.3665 42.5653 48.4309 42.2813C48.4952 41.9843 48.566 41.6873 48.6432 41.3903C48.7204 41.0933 48.7976 40.8028 48.8748 40.5187L51.3068 32.1709H53.1018L55.6303 40.5768C55.7204 40.8738 55.8041 41.1773 55.8813 41.4872C55.9585 41.7841 56.0292 42.0747 56.0936 42.3587C56.1579 42.6428 56.2094 42.9204 56.248 43.1916C56.2995 43.4498 56.3445 43.6887 56.3831 43.9082C56.4217 43.5854 56.4732 43.2497 56.5375 42.9011C56.6019 42.5395 56.6791 42.1651 56.7691 41.7777C56.8592 41.3903 56.9557 40.9965 57.0587 40.5962L59.1818 32.1709H60.9962Z" fill="white"/>
</g>
</svg>
